<svg id="Laag_1" data-name="Laag 1" xmlns="http://www.w3.org/2000/svg" width="285.38mm" height="125.99mm" viewBox="0 0 808.96 357.15">
  <defs>
    <style>
      .cls-1 {
        fill: #1d1d1b;
      }
    </style>
  </defs>
  <title>BUTCHER_BUYSE_V2</title>
  <g>
    <g>
      <path class="cls-1" d="M241.27,38.16a24.27,24.27,0,0,1,5.07.54,14.1,14.1,0,0,1,4.55,1.82,10.31,10.31,0,0,1,3.29,3.28,9.22,9.22,0,0,1,1.26,5,11.53,11.53,0,0,1-2.87,8.07,14.72,14.72,0,0,1-7.46,4.31v.14a10.59,10.59,0,0,1,6.19,3.32,9.91,9.91,0,0,1,2.5,7,13.26,13.26,0,0,1-1.54,6.5A13.69,13.69,0,0,1,248,82.82a20.13,20.13,0,0,1-6.57,2.84,34.36,34.36,0,0,1-8.35,1h-19.3l8.55-48.46ZM228.2,65.88l-2,11.57h6.64a18.33,18.33,0,0,0,3.63-.35A10.11,10.11,0,0,0,239.53,76,5.74,5.74,0,0,0,241.65,74a6,6,0,0,0,.79-3.15,4.23,4.23,0,0,0-1.78-3.62,8.48,8.48,0,0,0-5.07-1.3Zm3.29-18.55L229.7,57.66h7a12.89,12.89,0,0,0,2.56-.27,7.38,7.38,0,0,0,2.43-1,5.62,5.62,0,0,0,1.82-1.84,5.29,5.29,0,0,0,.72-2.85,3.58,3.58,0,0,0-1.85-3.4,9.57,9.57,0,0,0-4.66-1Z"/>
      <path class="cls-1" d="M281.38,81.69A13.18,13.18,0,0,1,277,85.83a12,12,0,0,1-6.34,1.68,12.6,12.6,0,0,1-4.86-.86,9.57,9.57,0,0,1-3.38-2.29A8.92,8.92,0,0,1,260.51,81a12.36,12.36,0,0,1-.62-3.94c0-.59,0-1.2.07-1.81a12.52,12.52,0,0,1,.27-1.88l3.63-20.88h11L271.59,71c-.09.5-.16,1-.2,1.47a13.58,13.58,0,0,0-.07,1.41,5.32,5.32,0,0,0,1,3.21c.66.92,1.84,1.37,3.53,1.37a5.71,5.71,0,0,0,2.7-.62,6.64,6.64,0,0,0,2.09-1.64,10,10,0,0,0,1.51-2.39,12.32,12.32,0,0,0,.88-2.88l3.29-18.41h10.95l-4.79,27c-.18.86-.38,2-.58,3.35s-.35,2.6-.45,3.7H281c0-.55.13-1.34.24-2.36s.22-1.89.31-2.57Z"/>
      <path class="cls-1" d="M300.69,60.74l1.5-8.21h5.41l1.57-9h10.68l-1.57,9h7.25L324,60.74h-7l-2.47,13.4c0,.32-.08.65-.1,1s0,.63,0,.86a2.56,2.56,0,0,0,1,2.33,4.78,4.78,0,0,0,2.6.62,8.53,8.53,0,0,0,1.61-.14q.79-.14,1.41-.27l-1,7.87a12.73,12.73,0,0,1-2.7.72,18.74,18.74,0,0,1-3.32.31,13.38,13.38,0,0,1-7.77-2c-1.9-1.33-2.84-3.43-2.84-6.32,0-.55,0-1.17.1-1.88a17.63,17.63,0,0,1,.31-2l2.6-14.48Z"/>
      <path class="cls-1" d="M352.91,63.35a6.38,6.38,0,0,0-2.36-2.06A7.32,7.32,0,0,0,347,60.4a9.5,9.5,0,0,0-7.23,3.21,11.42,11.42,0,0,0-2.84,7.5,8.58,8.58,0,0,0,.45,2.76,6.52,6.52,0,0,0,1.33,2.32,6.62,6.62,0,0,0,2.3,1.6,8.2,8.2,0,0,0,3.32.61,8.86,8.86,0,0,0,4.17-.89,11.06,11.06,0,0,0,3-2.19l5.2,7a21.1,21.1,0,0,1-6,3.83,19.78,19.78,0,0,1-7.73,1.42,20.64,20.64,0,0,1-6.78-1.07,14.54,14.54,0,0,1-5.23-3,13.89,13.89,0,0,1-3.36-4.73,15.15,15.15,0,0,1-1.2-6.16,21.51,21.51,0,0,1,1.51-8A21,21,0,0,1,332,57.9a20.59,20.59,0,0,1,15.2-6.4,20.33,20.33,0,0,1,7.29,1.3,11.3,11.3,0,0,1,5.3,4Z"/>
      <path class="cls-1" d="M382.21,86.62l3.21-18.48a13.58,13.58,0,0,0,.35-2.88,5.24,5.24,0,0,0-1-3.25c-.66-.89-1.83-1.33-3.52-1.33a5.92,5.92,0,0,0-4.83,2.22,11.49,11.49,0,0,0-2.36,5.37l-3.28,18.35h-11l9.11-51.75h11L376.05,57h.13a13,13,0,0,1,4-3.73,11.39,11.39,0,0,1,6.09-1.61,13.22,13.22,0,0,1,4.93.82,9.21,9.21,0,0,1,3.39,2.26A8.84,8.84,0,0,1,396.58,58,12.64,12.64,0,0,1,397.2,62c0,.64,0,1.26-.07,1.88a12.17,12.17,0,0,1-.28,1.81l-3.69,21Z"/>
      <path class="cls-1" d="M412.87,72.52a2.27,2.27,0,0,0-.07.61,5.09,5.09,0,0,0,.65,2.57,6.54,6.54,0,0,0,1.71,1.92,7.93,7.93,0,0,0,2.4,1.19,9.15,9.15,0,0,0,2.77.41,10.43,10.43,0,0,0,4.59-1,12.49,12.49,0,0,0,3.56-2.6l6.91,5.4a19.53,19.53,0,0,1-7.32,5,24.16,24.16,0,0,1-8.7,1.54,21.23,21.23,0,0,1-6.6-1,15.27,15.27,0,0,1-5.31-2.94,13.88,13.88,0,0,1-3.56-4.83,15.85,15.85,0,0,1-1.3-6.57,21.72,21.72,0,0,1,1.54-8.18,20.46,20.46,0,0,1,4.25-6.6,19.63,19.63,0,0,1,6.47-4.42,20.9,20.9,0,0,1,8.28-1.61,18.57,18.57,0,0,1,6.12,1A13.6,13.6,0,0,1,434,55.23a12.36,12.36,0,0,1,3.08,4.49,16.12,16.12,0,0,1,1.1,6.16A25.39,25.39,0,0,1,438,69a31.31,31.31,0,0,1-.65,3.53Zm15.54-6.71a4,4,0,0,0,.07-.69v-.68a4.93,4.93,0,0,0-1.61-3.76,6.48,6.48,0,0,0-4.62-1.51,8.19,8.19,0,0,0-3.32.65,9.92,9.92,0,0,0-2.57,1.61,8.66,8.66,0,0,0-1.78,2.12,9.17,9.17,0,0,0-1,2.26Z"/>
      <path class="cls-1" d="M457.77,57.53a15.05,15.05,0,0,1,3.94-4.25,9.24,9.24,0,0,1,5.51-1.64,10.88,10.88,0,0,1,1.26.07,4.77,4.77,0,0,1,1.06.2l-1.77,9.72a10.59,10.59,0,0,0-1.44-.27,12,12,0,0,0-1.3-.07,9.06,9.06,0,0,0-4,.82,8.69,8.69,0,0,0-2.7,2,8.2,8.2,0,0,0-1.58,2.57,16.5,16.5,0,0,0-.72,2.39l-3.08,17.53H442l4.86-27c.18-.87.38-2,.58-3.36s.36-2.6.45-3.69h10.4a9,9,0,0,1-.07,1c0,.44-.1.89-.17,1.37l-.2,1.44c-.07.48-.13.88-.17,1.2Z"/>
    </g>
    <g>
      <path class="cls-1" d="M125,54.17l-15.68,74h2c26.68,0,48-29,48-54,0-19-12.34-36-44-36-39,0-83.38,26-83.38,81,0,17,4.34,19.68,4.67,22.68-22,0-35.69-8.34-35.69-30.68C1,65.17,59,22.82,122,22.82c49,0,71,25.68,71,53,0,19.67-11.67,40.69-33.35,53,28.35,5.67,39.36,28.69,39.36,53.7,0,32-17.35,96.05-73,96.05-14.34,0-33-4.34-33-24.68,0-5.34,1.33-11.67,4.34-19.34,8.33,8.67,14.67,12,22.34,12,24.35,0,33-34.68,33-60,0-23.35-7.34-42.35-31.68-42.35-2.67,0-9.34.33-15.35,1L78.35,273h-48L75.68,60.84Z"/>
      <path class="cls-1" d="M363.83,106.19l-24,113.4a46.33,46.33,0,0,0-1.34,10.67c0,9.34,4.34,12.34,13.68,12.34,13,0,22-12.67,27-29.35h14c-19,54.36-49,61.7-67,61.7-19,0-31-11-33-31.68C276.45,270.61,257.77,275,243.77,275c-20,0-35.69-12-35.69-40a109.26,109.26,0,0,1,2.67-21.68l22.68-107.06h48l-24,113.4a46.68,46.68,0,0,0-1,9.34c0,7.67,2.67,13.67,10,13.67,13,0,21.68-12.67,26.69-29.35L315.8,106.19Z"/>
      <path class="cls-1" d="M532.25,106.19l-33,154.75c20.34-7.33,32.68-18.67,42-47.69h14c-13,44-38.35,56.7-59,62.37l-5,24c-10,47.69-38,56.7-60,56.7-20.35,0-37.36-10.68-37.36-32.35,0-28,29.35-42,54.36-49.7l4-18c-14,15.68-28.69,18.68-40,18.68-20,0-35.68-12-35.68-40a109.26,109.26,0,0,1,2.67-21.68l22.68-107.06h48l-24,113.4a35.48,35.48,0,0,0-1,8.34c0,7.67,2.33,14.67,10,14.67,12.34,0,21-11.67,26-27.35l23.34-109.06ZM423.52,330.31c7,0,15-10,19.35-29.68l2-9.67c-17,6.33-32.69,15-32.69,28.35A11.36,11.36,0,0,0,423.52,330.31Z"/>
      <path class="cls-1" d="M682.66,213.25c-17.34,20-35.69,32.69-51,41.69-14,14.67-35.35,20-52.36,20-34,0-48.69-22.34-48.69-42.69,0-15.34,8.67-26.68,17.67-31,18.68-33,30.69-66,41-98.72l49.36-6.67c4,86.38,7.33,99.38,7.33,121.39a51,51,0,0,1-1.33,12.68,186.72,186.72,0,0,0,24-16.68Zm-125.4,16.34c-3.33,0-7.34-1-9-4.33,0,15.67,5.68,23.34,20.35,23.34s29-7.67,29-31c0-17.34-3-27.69-6.33-79.05-6.67,21.68-16,41.69-27,63a12.57,12.57,0,0,1,7.67,11.67C571.93,221.26,565.93,229.59,557.26,229.59Z"/>
      <path class="cls-1" d="M737.69,246.94c26.34,0,42.35-14.68,59-33.69h11.34c-19,30.68-47.36,61.7-91.72,61.7-31.35,0-52-15.34-52-53,0-38.35,21.68-118.73,90.05-118.73,29.68,0,36.69,15.35,36.69,32,0,38.35-36.69,68-76.71,70.37-.33,4.67-.67,9.34-.67,13.34C713.67,241.6,721.68,246.94,737.69,246.94ZM757,120.87c-17,0-33.35,35.68-40,68.7,25.68-1.67,48.36-27.35,48.36-55C765.37,126.21,763.37,120.87,757,120.87Z"/>
    </g>
  </g>
  <g>
    <path class="cls-1" d="M23,308.45H35.37l5.42,31.92,19-31.92H72.06L62.5,354H54.77l7.93-37.85h-.13L40.8,354H35.14l-5.91-37.85H29.1L21.17,354H13.45Z"/>
    <path class="cls-1" d="M81,341.27a7.18,7.18,0,0,0,.27,3.09,5.88,5.88,0,0,0,1.35,2.29,6.25,6.25,0,0,0,2.22,1.45,8,8,0,0,0,2.92.51,10.74,10.74,0,0,0,5.14-1.19,16.87,16.87,0,0,0,4-3l4.66,4.18a21,21,0,0,1-7,4.77,20.1,20.1,0,0,1-7.31,1.41,16.5,16.5,0,0,1-6.32-1.16,11.48,11.48,0,0,1-7.17-8.4,15.47,15.47,0,0,1,.08-6.66,19.42,19.42,0,0,1,2.72-6.66,20.71,20.71,0,0,1,10.73-8.4,20.65,20.65,0,0,1,6.81-1.16q6.5,0,9.54,4.35T105,339.15l-.47,2.12ZM98,335.48q.69-3.41-1-5.37t-5.33-2a9.09,9.09,0,0,0-5.93,2,11.44,11.44,0,0,0-3.6,5.34Z"/>
    <path class="cls-1" d="M129.29,349.77h-.2A13.48,13.48,0,0,1,124,353.6a15.11,15.11,0,0,1-5.91,1.19,13.82,13.82,0,0,1-4.05-.58,8.46,8.46,0,0,1-3.25-1.74,6.4,6.4,0,0,1-1.93-2.89,7.74,7.74,0,0,1-.1-4.06,10.56,10.56,0,0,1,3.18-5.89,16.25,16.25,0,0,1,5.57-3.25,26,26,0,0,1,6.63-1.35q3.47-.25,6.36-.26h1.93l.12-.83c.44-1.94.09-3.38-1.05-4.35a7.19,7.19,0,0,0-4.79-1.45A13.45,13.45,0,0,0,122,329a15,15,0,0,0-4.15,2.35l-3.19-4.05a19,19,0,0,1,6.8-3.8,24.79,24.79,0,0,1,7.38-1.16,16.59,16.59,0,0,1,5.39.74,9.34,9.34,0,0,1,3.34,1.9,6.12,6.12,0,0,1,1.72,2.67,10.75,10.75,0,0,1,.49,3.06,16.24,16.24,0,0,1-.24,3c-.18,1-.33,1.81-.47,2.54L135.36,354h-7Zm1.57-9.59h-1.61c-1.07,0-2.29,0-3.65.13a21.31,21.31,0,0,0-3.9.61,10.67,10.67,0,0,0-3.29,1.42,4.08,4.08,0,0,0-1.79,2.6,3.06,3.06,0,0,0,.13,1.84,3.2,3.2,0,0,0,1,1.25,4.06,4.06,0,0,0,1.55.74,7.5,7.5,0,0,0,1.85.23,9.67,9.67,0,0,0,6.32-1.9,8.76,8.76,0,0,0,3-5.18Z"/>
    <path class="cls-1" d="M145.17,329.69l1.36-6.57h6.38l1.85-8.95h7.72l-1.85,8.95h8.5l-1.36,6.57h-8.5l-2.88,13.52a6.19,6.19,0,0,0,.1,3.66c.39.91,1.44,1.36,3.16,1.36A13.43,13.43,0,0,0,162,348a5.83,5.83,0,0,0,2.08-.74l-1.36,6.5a11.23,11.23,0,0,1-3.15.81,26,26,0,0,1-3.17.22,14.44,14.44,0,0,1-4.9-.67,5,5,0,0,1-2.66-2.06,6.46,6.46,0,0,1-.82-3.45,24.33,24.33,0,0,1,.59-4.76l3-14.16Z"/>
    <path class="cls-1" d="M193.49,341.47h-15.9L179,334.9h15.9Z"/>
    <path class="cls-1" d="M221,308.45h29.41l-1.54,7.33h-21.3l-2.52,12h20.09l-1.55,7.33H223.48l-4,18.93H211.4Z"/>
    <path class="cls-1" d="M254.12,323.12h7.72l-1,4.89h.13a13.23,13.23,0,0,1,4.58-4.18,11.86,11.86,0,0,1,5.8-1.48,6.41,6.41,0,0,1,1.34.13c.42.09.86.19,1.33.32l-1.62,7.47q-.89-.25-1.77-.42a9.85,9.85,0,0,0-1.79-.16,9.6,9.6,0,0,0-4.58,1,10.55,10.55,0,0,0-3,2.28,9.33,9.33,0,0,0-1.7,2.58,10.22,10.22,0,0,0-.65,1.93L255.37,354h-7.73Z"/>
    <path class="cls-1" d="M280.33,341.27a7.33,7.33,0,0,0,.27,3.09,5.88,5.88,0,0,0,1.35,2.29,6.25,6.25,0,0,0,2.22,1.45,8,8,0,0,0,2.92.51,10.68,10.68,0,0,0,5.14-1.19,16.87,16.87,0,0,0,4-3l4.66,4.18a21.06,21.06,0,0,1-7,4.77,20.14,20.14,0,0,1-7.31,1.41,16.52,16.52,0,0,1-6.33-1.16,11.44,11.44,0,0,1-7.16-8.4,15.16,15.16,0,0,1,.08-6.66,19.4,19.4,0,0,1,2.71-6.66,21,21,0,0,1,17.54-9.56q6.49,0,9.54,4.35t1.38,12.45l-.47,2.12Zm17.08-5.79q.69-3.41-1-5.37t-5.34-2a9.11,9.11,0,0,0-5.93,2,11.35,11.35,0,0,0-3.59,5.34Z"/>
    <path class="cls-1" d="M329.6,331.68a5.53,5.53,0,0,0-5.38-3.15,7.28,7.28,0,0,0-1.62.19,6.34,6.34,0,0,0-1.58.58,4.21,4.21,0,0,0-1.27,1,3.46,3.46,0,0,0-.71,1.48,1.74,1.74,0,0,0,.79,2.06,10.8,10.8,0,0,0,2.85,1.1c1.18.3,2.46.61,3.83.93a12.35,12.35,0,0,1,3.69,1.48,6.64,6.64,0,0,1,2.51,2.74,7.17,7.17,0,0,1,.22,4.76,10.67,10.67,0,0,1-2.16,4.67A12.73,12.73,0,0,1,327,352.6a16.66,16.66,0,0,1-4.62,1.68,24,24,0,0,1-4.86.51,18.58,18.58,0,0,1-6.43-1A9.31,9.31,0,0,1,306.5,350l6.19-4.83a11.62,11.62,0,0,0,2.61,2.74,6.48,6.48,0,0,0,3.89,1.06,9.64,9.64,0,0,0,1.78-.19,7.07,7.07,0,0,0,1.82-.65,5.55,5.55,0,0,0,1.49-1.12,3.34,3.34,0,0,0,.82-1.58,2.09,2.09,0,0,0-.7-2.38,8.82,8.82,0,0,0-2.84-1.26q-1.77-.48-3.84-.9a13,13,0,0,1-3.73-1.35,6.17,6.17,0,0,1-2.55-2.61,6.84,6.84,0,0,1-.23-4.63,11.27,11.27,0,0,1,2-4.48,12.74,12.74,0,0,1,3.47-3.12,15.79,15.79,0,0,1,4.38-1.8,19.33,19.33,0,0,1,4.67-.58,16.34,16.34,0,0,1,5.88,1.06,7.34,7.34,0,0,1,4.09,3.64Z"/>
    <path class="cls-1" d="M350.37,327.44h.13a12.09,12.09,0,0,1,3.91-3.51,11.89,11.89,0,0,1,6.23-1.58,10.73,10.73,0,0,1,5,1,7.16,7.16,0,0,1,2.94,2.7A8.39,8.39,0,0,1,369.7,330a18.16,18.16,0,0,1-.39,4.57L365.24,354h-7.72l3.28-15.64a25.42,25.42,0,0,0,.46-2.87,10,10,0,0,0-.08-3,4.2,4.2,0,0,0-1.22-2.31,4.09,4.09,0,0,0-3-.94,8.3,8.3,0,0,0-3.39.65,7.89,7.89,0,0,0-2.54,1.73,9.76,9.76,0,0,0-1.78,2.51,11.23,11.23,0,0,0-1,3L344.78,354h-7.73l10.23-48.66H355Z"/>
    <path class="cls-1" d="M517.22,341.47h-15.9l1.36-6.57h15.9Z"/>
    <path class="cls-1" d="M544.7,308.45h29.41l-1.54,7.33H551.26l-2.51,12h20.09l-1.55,7.33H547.21l-4,18.93h-8.11Z"/>
    <path class="cls-1" d="M573,338.57a19.62,19.62,0,0,1,2.72-6.66,21,21,0,0,1,17.54-9.56,16.43,16.43,0,0,1,6.29,1.16,11.53,11.53,0,0,1,7.14,8.4,15.33,15.33,0,0,1-.09,6.66,19.4,19.4,0,0,1-2.71,6.66,21.29,21.29,0,0,1-4.64,5.12,21,21,0,0,1-12.83,4.44,16.52,16.52,0,0,1-6.33-1.16,11.48,11.48,0,0,1-7.17-8.4A15.47,15.47,0,0,1,573,338.57Zm7.73,0a9.33,9.33,0,0,0-.12,3.48,7,7,0,0,0,1.18,3,6.55,6.55,0,0,0,2.43,2.06,8.06,8.06,0,0,0,3.65.77,10.38,10.38,0,0,0,4-.77,11.59,11.59,0,0,0,5.69-5,12.16,12.16,0,0,0,1.34-3.48,9.33,9.33,0,0,0,.12-3.48,7.1,7.1,0,0,0-1.18-3,6.72,6.72,0,0,0-2.43-2.06,8.06,8.06,0,0,0-3.65-.77,10.12,10.12,0,0,0-3.95.77,12.09,12.09,0,0,0-3.26,2.06,12.59,12.59,0,0,0-2.43,3A11.42,11.42,0,0,0,580.76,338.57Z"/>
    <path class="cls-1" d="M612.3,338.57a19.22,19.22,0,0,1,2.72-6.66,21,21,0,0,1,17.53-9.56,16.39,16.39,0,0,1,6.29,1.16,11.53,11.53,0,0,1,7.14,8.4,15.47,15.47,0,0,1-.08,6.66,19.42,19.42,0,0,1-2.72,6.66,21.29,21.29,0,0,1-4.64,5.12,20.94,20.94,0,0,1-12.83,4.44,16.43,16.43,0,0,1-6.32-1.16,11.43,11.43,0,0,1-7.17-8.4A15.32,15.32,0,0,1,612.3,338.57Zm7.72,0a9.53,9.53,0,0,0-.11,3.48,7.09,7.09,0,0,0,1.17,3,6.58,6.58,0,0,0,2.44,2.06,8,8,0,0,0,3.64.77,10.34,10.34,0,0,0,4-.77,11.63,11.63,0,0,0,3.3-2.06,12,12,0,0,0,2.4-3,12.13,12.13,0,0,0,1.33-3.48,9.33,9.33,0,0,0,.12-3.48,7,7,0,0,0-1.18-3,6.56,6.56,0,0,0-2.43-2.06,8,8,0,0,0-3.65-.77,10.07,10.07,0,0,0-3.94.77,12,12,0,0,0-3.27,2.06,12.59,12.59,0,0,0-2.43,3A11.69,11.69,0,0,0,620,338.57Z"/>
    <path class="cls-1" d="M675.33,349.38h-.13a13.81,13.81,0,0,1-5.4,4.12,16.37,16.37,0,0,1-6.37,1.29,13.92,13.92,0,0,1-6.16-1.25,10.49,10.49,0,0,1-4.07-3.45,12.08,12.08,0,0,1-2-5.15,17.65,17.65,0,0,1,.32-6.37A20.52,20.52,0,0,1,654,332.2a21.81,21.81,0,0,1,4.2-5.15,18.83,18.83,0,0,1,5.45-3.44,16.18,16.18,0,0,1,6.3-1.26,13.91,13.91,0,0,1,3.77.45A10.2,10.2,0,0,1,676.4,324a8.88,8.88,0,0,1,1.83,1.51,10.33,10.33,0,0,1,1.17,1.58h.2l4.61-21.69h7.72L681.7,354h-7.34Zm-16-10.81a9.33,9.33,0,0,0-.12,3.48,7,7,0,0,0,1.18,3,6.47,6.47,0,0,0,2.43,2.06,8,8,0,0,0,3.65.77,10.38,10.38,0,0,0,4-.77,11.92,11.92,0,0,0,3.3-2.06,11.74,11.74,0,0,0,2.39-3,12.16,12.16,0,0,0,1.34-3.48,9.53,9.53,0,0,0,.11-3.48,7.09,7.09,0,0,0-1.17-3,6.72,6.72,0,0,0-2.43-2.06,8.06,8.06,0,0,0-3.65-.77,10.12,10.12,0,0,0-3.95.77,11.94,11.94,0,0,0-3.26,2.06,12.12,12.12,0,0,0-2.43,3A11.42,11.42,0,0,0,659.29,338.57Z"/>
  </g>
</svg>
